<?xml version="1.0" encoding="UTF-8" standalone="no"?>
<!-- Created with Inkscape (http://www.inkscape.org/) -->

<svg
   xmlns:dc="http://purl.org/dc/elements/1.1/"
   xmlns:cc="http://creativecommons.org/ns#"
   xmlns:rdf="http://www.w3.org/1999/02/22-rdf-syntax-ns#"
   xmlns:svg="http://www.w3.org/2000/svg"
   xmlns="http://www.w3.org/2000/svg"
   xmlns:sodipodi="http://sodipodi.sourceforge.net/DTD/sodipodi-0.dtd"
   xmlns:inkscape="http://www.inkscape.org/namespaces/inkscape"
   width="48"
   height="48"
   id="svg2"
   version="1.1"
   inkscape:version="0.48.1 r9760"
   sodipodi:docname="vdepn.svg">
  <defs
     id="defs4">
    <inkscape:perspective
       sodipodi:type="inkscape:persp3d"
       inkscape:vp_x="-17.680287 : 16.684413 : 1"
       inkscape:vp_y="0 : 1545.012 : 0"
       inkscape:vp_z="66.7857 : 16.684413 : 1"
       inkscape:persp3d-origin="24.552707 : 4.3243169 : 1"
       id="perspective3001" />
    <filter
       inkscape:collect="always"
       id="filter3115"
       x="-0.10017009"
       width="1.2003402"
       y="-0.098376955"
       height="1.1967539">
      <feGaussianBlur
         inkscape:collect="always"
         stdDeviation="0.37139368"
         id="feGaussianBlur3117" />
    </filter>
    <filter
       inkscape:collect="always"
       id="filter3027"
       x="-0.11416428"
       width="1.2283286"
       y="-0.19781679"
       height="1.3956336">
      <feGaussianBlur
         inkscape:collect="always"
         stdDeviation="0.91437875"
         id="feGaussianBlur3029" />
    </filter>
  </defs>
  <sodipodi:namedview
     id="base"
     pagecolor="#ffffff"
     bordercolor="#666666"
     borderopacity="1.0"
     inkscape:pageopacity="0.0"
     inkscape:pageshadow="2"
     inkscape:zoom="8"
     inkscape:cx="22.073701"
     inkscape:cy="29.716387"
     inkscape:document-units="px"
     inkscape:current-layer="layer1"
     showgrid="false"
     inkscape:window-width="1024"
     inkscape:window-height="543"
     inkscape:window-x="0"
     inkscape:window-y="26"
     inkscape:window-maximized="1" />
  <metadata
     id="metadata7">
    <rdf:RDF>
      <cc:Work
         rdf:about="">
        <dc:format>image/svg+xml</dc:format>
        <dc:type
           rdf:resource="http://purl.org/dc/dcmitype/StillImage" />
        <dc:title />
      </cc:Work>
    </rdf:RDF>
  </metadata>
  <g
     inkscape:label="Layer 1"
     inkscape:groupmode="layer"
     id="layer1"
     transform="translate(0,-1004.3622)">
    <path
       sodipodi:type="arc"
       style="fill:#2bb6b5;stroke:#773d51"
       id="path3005"
       sodipodi:cx="28"
       sodipodi:cy="25"
       sodipodi:rx="23.5"
       sodipodi:ry="19.25"
       d="m 51.5,25 a 23.5,19.25 0 1 1 -47,0 23.5,19.25 0 1 1 47,0 z"
       transform="matrix(0.97362684,0,0,1.1843374,-3.3004335,998.72976)" />
    <path
       sodipodi:type="arc"
       style="fill:#4c5ac3;stroke:none"
       id="path3007"
       sodipodi:cx="24.75"
       sodipodi:cy="27.25"
       sodipodi:rx="15.5"
       sodipodi:ry="15.25"
       d="m 40.25,27.25 a 15.5,15.25 0 1 1 -31,0 15.5,15.25 0 1 1 31,0 z"
       transform="matrix(1.2903226,0,0,1.2786886,-7.6854839,994.26793)" />
    <path
       sodipodi:type="arc"
       style="fill:#160ca8;stroke:none"
       id="path3015"
       sodipodi:cx="19.75"
       sodipodi:cy="22.625"
       sodipodi:rx="12.25"
       sodipodi:ry="13.125"
       d="m 32,22.625 a 12.25,13.125 0 1 1 -24.5,0 12.25,13.125 0 1 1 24.5,0 z"
       transform="matrix(1.3163265,0,0,1.2380952,-1.872449,1001.3503)" />
    <path
       sodipodi:type="star"
       style="fill:#b8cd14;stroke:#302521"
       id="path3013"
       sodipodi:sides="5"
       sodipodi:cx="13.5"
       sodipodi:cy="18.25"
       sodipodi:r1="16.712645"
       sodipodi:r2="8.3563232"
       sodipodi:arg1="0.60459859"
       sodipodi:arg2="1.2329171"
       inkscape:flatsided="false"
       inkscape:rounded="0"
       inkscape:randomized="0"
       d="M 27.25,27.75 16.270012,26.133855 8.7139469,34.262688 6.8579892,23.320683 -3.2079432,18.646386 6.6249993,13.5 7.9599763,2.4822917 15.893027,10.243655 26.78402,8.1086346 21.853973,18.051807 z"
       transform="matrix(0.92733656,-0.37422842,0.37422842,0.92733656,-2.4737122,1009.1154)"
       inkscape:transform-center-x="-0.48024977"
       inkscape:transform-center-y="1.1322643" />
    <path
       style="fill:#4575ce;stroke:none;filter:url(#filter3027)"
       d="m 24.588531,1043.1912 c 0,0 20.642652,-13.4615 10.742605,-10.7271 -9.900047,2.7343 -20.010734,7.5721 -15.376669,8.4134 4.634064,0.8414 4.634064,2.3137 4.634064,2.3137 z"
       id="path3025"
       inkscape:connector-curvature="0" />
  </g>
</svg>
